<svg width="369" height="351" viewBox="0 0 369 351" fill="none" xmlns="http://www.w3.org/2000/svg">
<mask id="path-1-inside-1_243_246" fill="white">
<path fill-rule="evenodd" clip-rule="evenodd" d="M202.629 0.880999C203.358 0.682088 204.136 0.765822 204.806 1.11546L355.866 79.9206C356.29 80.1423 356.692 80.4127 357.125 80.6172C364.618 84.1525 369.41 92.1501 368.473 100.851L348.342 287.766C347.405 296.465 341.023 303.258 332.952 305.119C332.483 305.227 332.032 305.406 331.568 305.533L167.192 350.366C166.463 350.565 165.686 350.481 165.015 350.131L27.8668 278.583C18.9211 273.916 7.85042 271.085 2.8542 262.319C0.845597 258.795 -0.112973 254.629 0.354569 250.288L20.4852 63.373C20.9525 59.0339 22.7746 55.1691 25.4854 52.1542C32.2348 44.6472 43.6616 44.239 53.4008 41.5826L202.629 0.880999Z"/>
</mask>
<path fill-rule="evenodd" clip-rule="evenodd" d="M202.629 0.880999C203.358 0.682088 204.136 0.765822 204.806 1.11546L355.866 79.9206C356.29 80.1423 356.692 80.4127 357.125 80.6172C364.618 84.1525 369.41 92.1501 368.473 100.851L348.342 287.766C347.405 296.465 341.023 303.258 332.952 305.119C332.483 305.227 332.032 305.406 331.568 305.533L167.192 350.366C166.463 350.565 165.686 350.481 165.015 350.131L27.8668 278.583C18.9211 273.916 7.85042 271.085 2.8542 262.319C0.845597 258.795 -0.112973 254.629 0.354569 250.288L20.4852 63.373C20.9525 59.0339 22.7746 55.1691 25.4854 52.1542C32.2348 44.6472 43.6616 44.239 53.4008 41.5826L202.629 0.880999Z" fill="#F5BD41"/>
<path d="M204.806 1.11546L205.731 -0.657753L205.731 -0.657754L204.806 1.11546ZM202.629 0.880999L202.103 -1.04852L202.103 -1.04852L202.629 0.880999ZM167.192 350.366L167.719 352.295L167.719 352.295L167.192 350.366ZM165.015 350.131L164.09 351.904L164.09 351.904L165.015 350.131ZM0.354569 250.288L2.34307 250.502L0.354569 250.288ZM20.4852 63.373L18.4967 63.1588L20.4852 63.373ZM27.8668 278.583L28.7919 276.81L27.8668 278.583ZM332.952 305.119L332.502 303.17L332.952 305.119ZM357.125 80.6172L357.979 78.8084L357.125 80.6172ZM205.731 -0.657754C204.614 -1.24048 203.318 -1.38003 202.103 -1.04852L203.155 2.81052C203.398 2.74421 203.657 2.77213 203.881 2.88867L205.731 -0.657754ZM356.791 78.1474L205.731 -0.657753L203.881 2.88867L354.94 81.6938L356.791 78.1474ZM370.461 101.065C371.492 91.4911 366.218 82.6961 357.979 78.8084L356.272 82.426C363.018 85.6089 367.327 92.8091 366.484 100.637L370.461 101.065ZM350.331 287.98L370.461 101.065L366.484 100.637L346.354 287.552L350.331 287.98ZM333.401 307.067C342.277 305.021 349.3 297.552 350.331 287.98L346.354 287.552C345.511 295.378 339.769 301.495 332.502 303.17L333.401 307.067ZM331.042 303.603L166.666 348.436L167.719 352.295L332.094 307.462L331.042 303.603ZM166.666 348.436C166.423 348.502 166.164 348.475 165.94 348.358L164.09 351.904C165.207 352.487 166.503 352.627 167.719 352.295L166.666 348.436ZM165.94 348.358L28.7919 276.81L26.9418 280.356L164.09 351.904L165.94 348.358ZM-1.63393 250.074C-2.14796 254.847 -1.09317 259.433 1.11662 263.31L4.59179 261.329C2.78436 258.158 1.92202 254.412 2.34307 250.502L-1.63393 250.074ZM18.4967 63.1588L-1.63393 250.074L2.34307 250.502L22.4737 63.5871L18.4967 63.1588ZM23.9981 50.817C21.0159 54.1339 19.0105 58.3883 18.4967 63.1588L22.4737 63.5871C22.8946 59.6795 24.5334 56.2043 26.9726 53.4913L23.9981 50.817ZM202.103 -1.04852L52.8745 39.6531L53.9271 43.5121L203.155 2.81052L202.103 -1.04852ZM28.7919 276.81C26.4907 275.609 24.0622 274.532 21.7018 273.479C19.3196 272.417 17.0014 271.378 14.8149 270.221C10.4366 267.904 6.81336 265.227 4.59179 261.329L1.11662 263.31C3.89126 268.178 8.30144 271.299 12.944 273.756C15.2679 274.986 17.707 276.078 20.0727 277.132C22.4602 278.197 24.7701 279.223 26.9418 280.356L28.7919 276.81ZM332.502 303.17C332.177 303.245 331.876 303.34 331.642 303.416C331.385 303.499 331.216 303.556 331.042 303.603L332.094 307.462C332.384 307.383 332.672 307.287 332.874 307.222C333.099 307.149 333.258 307.1 333.401 307.067L332.502 303.17ZM26.9726 53.4913C29.9738 50.1534 34.0858 48.3081 38.8595 46.9758C41.2435 46.3105 43.7312 45.7885 46.2863 45.2576C48.8181 44.7315 51.4218 44.1955 53.9271 43.5121L52.8745 39.6531C50.5103 40.2979 48.0334 40.8091 45.4725 41.3412C42.9351 41.8685 40.3181 42.4159 37.7843 43.123C32.7225 44.5357 27.7464 46.648 23.9981 50.817L26.9726 53.4913ZM354.94 81.6938C355.1 81.7773 355.253 81.8683 355.486 82.0038C355.698 82.127 355.971 82.2839 356.272 82.426L357.979 78.8084C357.846 78.746 357.702 78.6654 357.498 78.5468C357.316 78.4406 357.056 78.2856 356.791 78.1474L354.94 81.6938Z" fill="black" mask="url(#path-1-inside-1_243_246)"/>
</svg>
