<svg width="497" height="322" fill="none" xmlns="http://www.w3.org/2000/svg"><mask id="a" fill="#fff"><path fill-rule="evenodd" clip-rule="evenodd" d="M125 314C61 342-9 289 1 220L20 86c10-68 88-100 142-59l14 11 42-25c42-24 90-12 117 20l31-16c62-33 136 16 130 86l-11 135c-6 67-82 104-138 67l-29-19c-28 22-69 28-104 7l-18-11-71 32z"/></mask><path fill-rule="evenodd" clip-rule="evenodd" d="M125 314C61 342-9 289 1 220L20 86c10-68 88-100 142-59l14 11 42-25c42-24 90-12 117 20l31-16c62-33 136 16 130 86l-11 135c-6 67-82 104-138 67l-29-19c-28 22-69 28-104 7l-18-11-71 32z" fill="#F5BD41"/><path d="M1 220l-2-1 2 1zm124 94l-1-2 1 2zM20 86h2-2zm142-59l-1 2 1-2zm14 11l-1 1 1 1 1-1-1-1zm42-25l1 1-1-1zm117 20l-1 1 1 1h1l-1-2zm31-16l-1-2 1 2zm130 86h2-2zm-11 135h2-2zm-138 67l1-2-1 2zm-29-19l1-2-1-1-1 1 1 2zm-104 7l-1 2 1-2zm-18-11l1-2h-2l1 2zM-1 219c-10 71 62 126 127 96l-2-3C62 340-7 288 3 220l-4-1zM19 85L-1 219l4 1L22 86l-3-1zm145-59C108-16 28 17 19 85l3 1c10-66 86-97 139-57l3-3zm13 10l-13-10-3 3 14 10 2-3zm0 3l42-25-2-3-42 25 2 3zm42-25c41-23 88-11 115 20l3-2c-28-33-77-46-120-21l2 3zm146 1l-31 16 2 4 31-16-2-4zm133 88c6-71-69-121-133-88l2 4c61-32 132 16 127 84h4zm-11 135l11-135h-4l-11 135h4zm-141 69c58 38 135 0 141-69h-4c-6 66-80 102-135 65l-2 4zm-29-19l29 19 2-4-29-19-2 4zm0-4c-27 22-67 28-102 7l-2 4c36 21 78 15 107-7l-3-4zm-102 7l-18-11-2 4 18 11 2-4zm-89 24l71-31-2-4-71 32 2 3z" fill="#000" mask="url(#a)"/></svg>