<svg width="564" height="517" fill="none" xmlns="http://www.w3.org/2000/svg"><mask id="a" fill="#fff"><path d="M497 258c0 98-96 177-215 177S67 356 67 258 163 81 282 81s215 79 215 177z"/></mask><path d="M497 258c0 98-96 177-215 177S67 356 67 258 163 81 282 81s215 79 215 177z" fill="#F5BD41"/><path d="M495 258c0 97-95 175-213 175v4c119 0 217-79 217-179h-4zM282 433c-118 0-213-78-213-175h-4c0 100 97 179 217 179v-4zM69 258c0-96 95-175 213-175v-4C162 79 65 159 65 258h4zM282 83c118 0 213 79 213 175h4c0-99-98-179-217-179v4z" fill="#000" mask="url(#a)"/></svg>