<svg width="312" height="416" viewBox="0 0 312 416" fill="none" xmlns="http://www.w3.org/2000/svg">
<mask id="path-1-inside-1_243_269" fill="white">
<path fill-rule="evenodd" clip-rule="evenodd" d="M296.442 80.3282C289.507 10.6396 208.523 -24.1075 153.241 18.8864L36.7136 109.512C19.1127 123.201 8.46928 141.451 4.32924 160.732C0.761046 172.234 -0.596256 184.78 0.818122 197.952L15.3926 333.687C23.1324 405.769 107.324 440.995 164.091 395.903L270.984 310.991C271.727 310.4 272.458 309.802 273.177 309.196C298.241 291.814 314.502 261.827 311.059 227.222L296.442 80.3282Z"/>
</mask>
<path fill-rule="evenodd" clip-rule="evenodd" d="M296.442 80.3282C289.507 10.6396 208.523 -24.1075 153.241 18.8864L36.7136 109.512C19.1127 123.201 8.46928 141.451 4.32924 160.732C0.761046 172.234 -0.596256 184.78 0.818122 197.952L15.3926 333.687C23.1324 405.769 107.324 440.995 164.091 395.903L270.984 310.991C271.727 310.4 272.458 309.802 273.177 309.196C298.241 291.814 314.502 261.827 311.059 227.222L296.442 80.3282Z" fill="#F5BD41"/>
<path d="M153.241 18.8864L152.013 17.3077L153.241 18.8864ZM296.442 80.3282L298.432 80.1301L296.442 80.3282ZM36.7136 109.512L35.4858 107.933L36.7136 109.512ZM4.32924 160.732L6.23945 161.324L6.2659 161.239L6.28467 161.152L4.32924 160.732ZM0.818122 197.952L2.80668 197.739L2.80668 197.739L0.818122 197.952ZM15.3926 333.687L17.3811 333.473L15.3926 333.687ZM164.091 395.903L165.335 397.469L164.091 395.903ZM270.984 310.991L272.228 312.557L272.228 312.557L270.984 310.991ZM273.177 309.196L272.037 307.553L271.96 307.606L271.888 307.667L273.177 309.196ZM311.059 227.222L313.049 227.024L311.059 227.222ZM154.469 20.4652C208.508 -21.5626 287.673 12.4036 294.451 80.5262L298.432 80.1301C291.341 8.87549 208.537 -26.6524 152.013 17.3077L154.469 20.4652ZM37.9414 111.091L154.469 20.4652L152.013 17.3077L35.4858 107.933L37.9414 111.091ZM6.28467 161.152C10.3296 142.314 20.7253 124.48 37.9414 111.091L35.4858 107.933C17.5 121.921 6.60891 140.589 2.37381 160.312L6.28467 161.152ZM2.80668 197.739C1.42162 184.839 2.75158 172.567 6.23945 161.324L2.41904 160.139C-1.22949 171.9 -2.61413 184.721 -1.17046 198.166L2.80668 197.739ZM17.3811 333.473L2.80668 197.739L-1.17046 198.166L13.404 333.9L17.3811 333.473ZM162.847 394.337C107.314 438.449 24.9527 403.989 17.3811 333.473L13.404 333.9C21.3121 407.55 107.334 443.542 165.335 397.469L162.847 394.337ZM269.74 309.425L162.847 394.337L165.335 397.469L272.228 312.557L269.74 309.425ZM271.888 307.667C271.184 308.26 270.468 308.846 269.74 309.425L272.228 312.557C272.987 311.954 273.733 311.344 274.466 310.725L271.888 307.667ZM309.069 227.421C312.435 261.249 296.551 290.553 272.037 307.553L274.317 310.84C299.932 293.076 316.57 262.406 313.049 227.024L309.069 227.421ZM294.451 80.5262L309.069 227.421L313.049 227.024L298.432 80.1301L294.451 80.5262Z" fill="black" mask="url(#path-1-inside-1_243_269)"/>
</svg>
