<svg width="405" height="314" viewBox="0 0 405 314" fill="none" xmlns="http://www.w3.org/2000/svg">
<mask id="path-1-inside-1_293_98" fill="white">
<path fill-rule="evenodd" clip-rule="evenodd" d="M291.074 313.279C341.685 320.332 391.383 263.846 402.078 187.112C412.772 110.379 380.413 42.4564 329.801 35.4027C328.803 35.2637 327.806 35.1493 326.809 35.0593C326.788 35.0574 326.773 35.0386 326.776 35.018C326.779 34.9981 326.765 34.9797 326.745 34.977L86.2106 1.454C56.6727 -2.66266 29.3903 17.9453 25.2737 47.4832L1.45419 218.393C-2.66247 247.931 17.9456 275.213 47.4834 279.33L288.018 312.853C288.038 312.856 288.056 312.842 288.059 312.822C288.062 312.801 288.082 312.787 288.102 312.791C289.085 312.977 290.076 313.14 291.074 313.279Z"/>
</mask>
<path fill-rule="evenodd" clip-rule="evenodd" d="M291.074 313.279C341.685 320.332 391.383 263.846 402.078 187.112C412.772 110.379 380.413 42.4564 329.801 35.4027C328.803 35.2637 327.806 35.1493 326.809 35.0593C326.788 35.0574 326.773 35.0386 326.776 35.018C326.779 34.9981 326.765 34.9797 326.745 34.977L86.2106 1.454C56.6727 -2.66266 29.3903 17.9453 25.2737 47.4832L1.45419 218.393C-2.66247 247.931 17.9456 275.213 47.4834 279.33L288.018 312.853C288.038 312.856 288.056 312.842 288.059 312.822C288.062 312.801 288.082 312.787 288.102 312.791C289.085 312.977 290.076 313.14 291.074 313.279Z" fill="#F5BD41"/>
<path d="M288.102 312.791L287.73 314.756L288.102 312.791ZM326.809 35.0593L326.629 37.0512L326.809 35.0593ZM400.097 186.836C394.796 224.871 379.838 257.796 360.043 280.295C340.236 302.807 315.777 314.702 291.35 311.298L290.798 315.26C316.982 318.909 342.678 306.087 363.046 282.937C383.427 259.772 398.665 226.088 404.058 187.389L400.097 186.836ZM329.525 37.3836C353.952 40.788 374.227 58.9174 387.123 85.9879C400.012 113.041 405.398 148.802 400.097 186.836L404.058 187.389C409.452 148.69 404.005 112.122 390.735 84.2675C377.472 56.43 356.261 37.0711 330.077 33.4219L329.525 37.3836ZM326.629 37.0512C327.594 37.1383 328.559 37.249 329.525 37.3836L330.077 33.4219C329.047 33.2784 328.018 33.1603 326.989 33.0674L326.629 37.0512ZM85.9345 3.43485L326.469 36.9578L327.021 32.9961L86.4867 -0.526856L85.9345 3.43485ZM3.43504 218.669L27.2545 47.7593L23.2928 47.2072L-0.526668 218.117L3.43504 218.669ZM288.294 310.872L47.7595 277.349L47.2074 281.311L287.742 314.834L288.294 310.872ZM291.35 311.298C290.384 311.163 289.425 311.006 288.474 310.826L287.73 314.756C288.745 314.948 289.768 315.116 290.798 315.26L291.35 311.298ZM290.04 313.098C289.885 314.21 288.832 314.964 287.73 314.756L288.474 310.826C287.331 310.61 286.239 311.393 286.078 312.546L290.04 313.098ZM287.742 314.834C288.856 314.989 289.885 314.212 290.04 313.098L286.078 312.546C286.228 311.472 287.22 310.722 288.294 310.872L287.742 314.834ZM-0.526668 218.117C-4.79579 248.749 16.5755 277.042 47.2074 281.311L47.7595 277.349C19.3156 273.385 -0.529146 247.113 3.43504 218.669L-0.526668 218.117ZM86.4867 -0.526856C55.8548 -4.79598 27.5619 16.5753 23.2928 47.2072L27.2545 47.7593C31.2187 19.3154 57.4906 -0.529333 85.9345 3.43485L86.4867 -0.526856ZM328.757 35.2941C328.912 34.1801 328.135 33.1513 327.021 32.9961L326.469 36.9578C325.395 36.8081 324.646 35.8161 324.795 34.742L328.757 35.2941ZM326.989 33.0674C328.105 33.1682 328.912 34.1824 328.757 35.2941L324.795 34.742C324.635 35.8949 325.471 36.9466 326.629 37.0512L326.989 33.0674Z" fill="black" mask="url(#path-1-inside-1_293_98)"/>
</svg>
