<svg width="464" height="355" fill="none" xmlns="http://www.w3.org/2000/svg"><mask id="a" fill="#fff"><path fill-rule="evenodd" clip-rule="evenodd" d="M248 355c119 0 215-79 215-177S367 0 248 0 33 80 33 178c0 18 4 36 10 53 4 10 3 22-3 31L6 308c-13 19 0 46 24 46h198l20 1z"/></mask><path fill-rule="evenodd" clip-rule="evenodd" d="M248 355c119 0 215-79 215-177S367 0 248 0 33 80 33 178c0 18 4 36 10 53 4 10 3 22-3 31L6 308c-13 19 0 46 24 46h198l20 1z" fill="#F5BD41"/><path d="M228 354v-2 2zM6 308l2 1-2-1zm37-77l-2 1 2-1zm418-53c0 96-95 175-213 175v4c120 0 217-80 217-179h-4zM248 2c118 0 213 79 213 176h4C465 78 368-2 248-2v4zM35 178C35 81 130 2 248 2v-4C129-2 31 78 31 178h4zm10 52c-7-16-10-34-10-52h-4c0 18 4 37 10 54l4-2zM8 309l33-46-3-2-33 46 3 2zm220 43H30v4h198v-4zm20 1l-20-1v4l20 1v-4zM5 307c-15 21 0 49 25 49v-4c-22 0-35-25-22-43l-3-2zm36-75c4 9 3 20-3 29l3 2c7-10 8-22 4-33l-4 2z" fill="#000" mask="url(#a)"/></svg>