<svg width="486" height="359" viewBox="0 0 486 359" fill="none" xmlns="http://www.w3.org/2000/svg">
<mask id="path-1-inside-1_294_43" fill="white">
<path fill-rule="evenodd" clip-rule="evenodd" d="M237.479 353.555C354.043 376.417 463.823 317.016 482.678 220.88C501.533 124.744 422.324 28.2773 305.759 5.41553C189.194 -17.4462 79.4149 41.9544 60.5598 138.09C56.9726 156.38 56.9349 174.683 60.0287 192.487C61.9035 203.277 59.0362 214.59 51.0384 222.071L9.24899 261.159C-8.02473 277.316 0.26755 306.244 23.4777 310.796L217.803 348.909C224.231 350.69 230.793 352.244 237.479 353.555Z"/>
</mask>
<path fill-rule="evenodd" clip-rule="evenodd" d="M237.479 353.555C354.043 376.417 463.823 317.016 482.678 220.88C501.533 124.744 422.324 28.2773 305.759 5.41553C189.194 -17.4462 79.4149 41.9544 60.5598 138.09C56.9726 156.38 56.9349 174.683 60.0287 192.487C61.9035 203.277 59.0362 214.59 51.0384 222.071L9.24899 261.159C-8.02473 277.316 0.26755 306.244 23.4777 310.796L217.803 348.909C224.231 350.69 230.793 352.244 237.479 353.555Z" fill="#F5BD41"/>
<path d="M217.803 348.909L218.337 346.982L218.263 346.961L218.188 346.946L217.803 348.909ZM9.24899 261.159L10.6152 262.62L9.24899 261.159ZM480.715 220.495C462.139 315.21 353.715 374.314 237.864 351.592L237.094 355.517C354.371 378.519 465.507 318.822 484.64 221.265L480.715 220.495ZM305.374 7.37814C421.225 30.1 499.291 125.78 480.715 220.495L484.64 221.265C503.774 123.708 423.422 26.4545 306.144 3.45292L305.374 7.37814ZM62.5224 138.475C81.0989 43.76 189.523 -15.3437 305.374 7.37814L306.144 3.45292C188.866 -19.5487 77.731 40.1487 58.5972 137.705L62.5224 138.475ZM61.9992 192.145C58.9459 174.573 58.9838 156.518 62.5224 138.475L58.5972 137.705C54.9614 156.243 54.924 174.792 58.0582 192.83L61.9992 192.145ZM10.6152 262.62L52.4046 223.532L49.6722 220.61L7.88277 259.698L10.6152 262.62ZM218.188 346.946L23.8627 308.833L23.0928 312.759L217.418 350.872L218.188 346.946ZM237.864 351.592C231.228 350.291 224.716 348.749 218.337 346.982L217.269 350.836C223.746 352.631 230.358 354.196 237.094 355.517L237.864 351.592ZM7.88277 259.698C-10.5822 276.97 -1.71808 307.893 23.0928 312.759L23.8627 308.833C2.25318 304.595 -5.46723 277.663 10.6152 262.62L7.88277 259.698ZM58.0582 192.83C59.8397 203.082 57.0898 213.672 49.6722 220.61L52.4046 223.532C60.9825 215.508 63.9672 203.471 61.9992 192.145L58.0582 192.83Z" fill="black" mask="url(#path-1-inside-1_294_43)"/>
</svg>
