<svg width="487" height="308" fill="none" xmlns="http://www.w3.org/2000/svg"><mask id="a" fill="#fff"><path fill-rule="evenodd" clip-rule="evenodd" d="M39 125c-13 19-25 39-34 60-12 25 3 53 29 62l162 53c28 8 58 10 88 3 30-6 60-20 88-41 28-20 54-48 76-80 13-18 25-38 34-59 12-25-3-54-29-62L291 8c-28-9-58-10-88-4-30 7-60 21-88 41-29 21-54 48-76 80z"/></mask><path fill-rule="evenodd" clip-rule="evenodd" d="M39 125c-13 19-25 39-34 60-12 25 3 53 29 62l162 53c28 8 58 10 88 3 30-6 60-20 88-41 28-20 54-48 76-80 13-18 25-38 34-59 12-25-3-54-29-62L291 8c-28-9-58-10-88-4-30 7-60 21-88 41-29 21-54 48-76 80z" fill="#F5BD41"/><path d="M39 125l1 1-1-1zm157 175v1-1zm0 0v1-1zm88 3v2-2zm88-41l-1-1 1 1zm76-80l-1-1 1 1zM291 8V6v2zm-88-4l1 2-1-2zm-88 41l-1-1 1 1zM6 186c10-21 21-41 34-60l-3-2c-13 19-24 39-34 60l3 2zm191 112L35 245l-2 4 163 52 1-3zm0 0l-1 3 1-3zm86 3c-30 7-59 5-86-3l-1 3c28 9 58 11 88 4l-1-4zm88-40c-28 20-58 34-88 40l1 4c31-6 61-20 89-41l-2-3zm76-80c-22 32-48 59-76 80l2 3c29-21 55-48 77-80l-3-3zm33-59c-9 21-21 41-33 59l3 3c13-19 24-39 34-60l-4-2zM290 10l162 53 1-4L291 6l-1 4zm0 0l1-4-1 4zm-86-4c30-6 59-5 86 4l1-4c-28-9-58-10-88-4l1 4zm-88 41c28-21 58-34 88-41l-1-4c-31 7-61 21-89 42l2 3zm-76 79c22-31 48-58 76-79l-2-3c-29 21-55 48-77 80l3 2zm444-2c12-27-3-56-31-65l-1 4c26 8 39 35 28 59l4 2zM3 184c-12 26 3 56 30 65l2-4c-26-8-39-35-29-59l-3-2z" fill="#000" mask="url(#a)"/></svg>