<svg width="449" height="348" viewBox="0 0 449 348" fill="none" xmlns="http://www.w3.org/2000/svg">
<mask id="path-1-inside-1_294_29" fill="white">
<path fill-rule="evenodd" clip-rule="evenodd" d="M412.029 167.565C410.657 162.359 410.7 156.904 411.726 151.619C412.147 149.454 412.52 147.273 412.843 145.078C424.074 68.9355 372.064 4.06357 296.675 0.182259C253.082 -2.06211 211.217 16.5786 181.487 47.4236C165.053 64.4731 134.006 67.1258 110.53 64.0202C108.529 63.7554 106.5 63.5895 104.447 63.5256C54.0238 61.9578 7.63601 122.561 0.837051 198.886C-5.96191 275.211 29.4026 338.356 79.8259 339.924C99.9761 340.55 119.482 331.248 136.074 314.982C151.231 300.123 175.938 295.315 193.9 306.624C250.375 342.178 321.811 357.563 377.414 341.866C454.692 320.05 472.124 246.46 416.351 177.497C414.723 175.485 413.507 173.168 412.847 170.666L412.029 167.565Z"/>
</mask>
<path fill-rule="evenodd" clip-rule="evenodd" d="M412.029 167.565C410.657 162.359 410.7 156.904 411.726 151.619C412.147 149.454 412.52 147.273 412.843 145.078C424.074 68.9355 372.064 4.06357 296.675 0.182259C253.082 -2.06211 211.217 16.5786 181.487 47.4236C165.053 64.4731 134.006 67.1258 110.53 64.0202C108.529 63.7554 106.5 63.5895 104.447 63.5256C54.0238 61.9578 7.63601 122.561 0.837051 198.886C-5.96191 275.211 29.4026 338.356 79.8259 339.924C99.9761 340.55 119.482 331.248 136.074 314.982C151.231 300.123 175.938 295.315 193.9 306.624C250.375 342.178 321.811 357.563 377.414 341.866C454.692 320.05 472.124 246.46 416.351 177.497C414.723 175.485 413.507 173.168 412.847 170.666L412.029 167.565Z" fill="#F5BD41"/>
<path d="M412.843 145.078L414.822 145.37L412.843 145.078ZM296.675 0.182259L296.778 -1.8151L296.675 0.182259ZM104.447 63.5256L104.509 61.5266L104.447 63.5256ZM0.837051 198.886L2.82916 199.063L0.837051 198.886ZM79.8259 339.924L79.8881 337.925L79.8259 339.924ZM377.414 341.866L376.871 339.941L377.414 341.866ZM181.487 47.4236L180.047 46.0356L181.487 47.4236ZM412.847 170.666L410.913 171.176L412.847 170.666ZM411.726 151.619L413.689 152.001L411.726 151.619ZM413.689 152.001C414.116 149.806 414.494 147.595 414.822 145.37L410.865 144.786C410.545 146.951 410.178 149.102 409.763 151.238L413.689 152.001ZM414.822 145.37C426.218 68.1024 373.386 2.12902 296.778 -1.8151L296.572 2.17961C370.741 5.99811 421.929 69.7686 410.865 144.786L414.822 145.37ZM296.778 -1.8151C252.546 -4.09233 210.135 14.8192 180.047 46.0356L182.927 48.8115C212.299 18.3381 253.617 -0.0318922 296.572 2.17961L296.778 -1.8151ZM110.792 62.0375C108.724 61.7639 106.629 61.5925 104.509 61.5266L104.385 65.5246C106.371 65.5864 108.333 65.7469 110.268 66.0029L110.792 62.0375ZM104.509 61.5266C78.4337 60.7158 53.6802 75.9769 34.6948 100.78C15.6899 125.609 2.2742 160.211 -1.15506 198.708L2.82916 199.063C6.19887 161.235 19.3766 127.373 37.8711 103.211C56.3852 79.0239 80.0372 64.7676 104.385 65.5246L104.509 61.5266ZM-1.15506 198.708C-4.584 237.202 2.60539 272.485 17.1282 298.416C31.6489 324.343 53.6418 341.11 79.7637 341.923L79.8881 337.925C55.5867 337.169 34.6857 321.58 20.6181 296.461C6.55252 271.347 -0.540858 236.895 2.82916 199.063L-1.15506 198.708ZM79.7637 341.923C100.601 342.571 120.608 332.945 137.474 316.41L134.674 313.554C118.356 329.551 99.3511 338.53 79.8881 337.925L79.7637 341.923ZM192.835 308.316C249.651 344.086 321.67 359.681 377.958 343.791L376.871 339.941C321.952 355.445 251.099 340.271 194.966 304.931L192.835 308.316ZM377.958 343.791C417.149 332.727 441.477 308.41 448.723 277.822C455.952 247.304 446.056 211.046 417.906 176.239L414.796 178.755C442.419 212.91 451.693 247.929 444.831 276.9C437.984 305.803 414.957 329.189 376.871 339.941L377.958 343.791ZM410.095 168.075L410.913 171.176L414.781 170.156L413.963 167.055L410.095 168.075ZM137.474 316.41C152.099 302.073 175.799 297.591 192.835 308.316L194.966 304.931C176.077 293.039 150.364 298.173 134.674 313.554L137.474 316.41ZM180.047 46.0356C172.223 54.1522 160.802 58.9514 148.278 61.3147C135.775 63.6742 122.363 63.5681 110.792 62.0375L110.268 66.0029C122.173 67.5779 136.022 67.6983 149.02 65.2454C161.998 62.7963 174.316 57.7444 182.927 48.8115L180.047 46.0356ZM417.906 176.239C416.443 174.431 415.364 172.366 414.781 170.156L410.913 171.176C411.65 173.97 413.003 176.539 414.796 178.755L417.906 176.239ZM409.763 151.238C408.69 156.76 408.632 162.526 410.095 168.075L413.963 167.055C412.681 162.193 412.709 157.048 413.689 152.001L409.763 151.238Z" fill="black" mask="url(#path-1-inside-1_294_29)"/>
</svg>
