<svg width="510" height="335" viewBox="0 0 510 335" fill="none" xmlns="http://www.w3.org/2000/svg">
<mask id="path-1-inside-1_461_22" fill="white">
<path fill-rule="evenodd" clip-rule="evenodd" d="M125.463 326.846C61.6244 355.233 -8.44218 301.897 1.50904 232.489L22.4806 86.2145C32.1171 19.0017 110.068 -13.077 163.998 27.9763L181.031 40.9422L228.588 13.1779C270.556 -11.3238 319.673 1.88329 346.561 35.2787L380.021 17.7999C441.96 -14.556 515.254 34.3052 509.657 104.221L497.863 251.546C492.445 319.224 416.672 356.11 360.284 318.519L329.617 298.075C301.438 321.092 260.178 327.152 224.558 305.908L202.344 292.659L125.463 326.846Z"/>
</mask>
<path fill-rule="evenodd" clip-rule="evenodd" d="M125.463 326.846C61.6244 355.233 -8.44218 301.897 1.50904 232.489L22.4806 86.2145C32.1171 19.0017 110.068 -13.077 163.998 27.9763L181.031 40.9422L228.588 13.1779C270.556 -11.3238 319.673 1.88329 346.561 35.2787L380.021 17.7999C441.96 -14.556 515.254 34.3052 509.657 104.221L497.863 251.546C492.445 319.224 416.672 356.11 360.284 318.519L329.617 298.075C301.438 321.092 260.178 327.152 224.558 305.908L202.344 292.659L125.463 326.846Z" fill="#F5BD41"/>
<path d="M1.50904 232.489L-0.470718 232.205L1.50904 232.489ZM125.463 326.846L126.276 328.673L125.463 326.846ZM22.4806 86.2145L20.5009 85.9307L20.5009 85.9307L22.4806 86.2145ZM163.998 27.9763L162.787 29.5677L162.787 29.5677L163.998 27.9763ZM181.031 40.9422L179.82 42.5335L180.884 43.3438L182.039 42.6694L181.031 40.9422ZM228.588 13.1779L229.596 14.9051L229.596 14.9051L228.588 13.1779ZM346.561 35.2787L345.003 36.5329L346.032 37.8112L347.487 37.0514L346.561 35.2787ZM380.021 17.7999L379.095 16.0272L379.095 16.0272L380.021 17.7999ZM509.657 104.221L511.65 104.381L511.65 104.381L509.657 104.221ZM497.863 251.546L495.869 251.386L495.869 251.386L497.863 251.546ZM360.284 318.519L359.174 320.183L359.174 320.183L360.284 318.519ZM329.617 298.075L330.726 296.411L329.496 295.591L328.352 296.526L329.617 298.075ZM224.558 305.908L225.582 304.19L224.558 305.908ZM202.344 292.659L203.368 290.941L202.478 290.411L201.531 290.832L202.344 292.659ZM-0.470718 232.205C-10.6426 303.152 60.9835 357.707 126.276 328.673L124.651 325.018C62.2653 352.76 -6.24175 300.642 3.48879 232.772L-0.470718 232.205ZM20.5009 85.9307L-0.470718 232.205L3.48879 232.772L24.4604 86.4983L20.5009 85.9307ZM165.21 26.3849C110.058 -15.5976 30.3527 17.2153 20.5009 85.9307L24.4604 86.4983C33.8814 20.7881 110.077 -10.5565 162.787 29.5677L165.21 26.3849ZM182.242 39.3508L165.21 26.3849L162.787 29.5677L179.82 42.5335L182.242 39.3508ZM182.039 42.6694L229.596 14.9051L227.579 11.4507L180.023 39.215L182.039 42.6694ZM229.596 14.9051C270.632 -9.05221 318.677 3.83602 345.003 36.5329L348.119 34.0244C320.668 -0.069452 270.48 -13.5953 227.579 11.4507L229.596 14.9051ZM379.095 16.0272L345.635 33.506L347.487 37.0514L380.947 19.5726L379.095 16.0272ZM511.65 104.381C517.371 32.915 442.445 -17.0657 379.095 16.0272L380.947 19.5726C441.475 -12.0463 513.136 35.6955 507.663 104.062L511.65 104.381ZM499.856 251.705L511.65 104.381L507.663 104.062L495.869 251.386L499.856 251.705ZM359.174 320.183C416.839 358.625 494.317 320.896 499.856 251.705L495.869 251.386C490.572 317.551 416.505 353.595 361.393 316.855L359.174 320.183ZM328.508 299.739L359.174 320.183L361.393 316.855L330.726 296.411L328.508 299.739ZM328.352 296.526C300.77 319.055 260.421 324.969 225.582 304.19L223.533 307.626C259.934 329.335 302.105 323.13 330.882 299.624L328.352 296.526ZM225.582 304.19L203.368 290.941L201.319 294.377L223.533 307.626L225.582 304.19ZM126.276 328.673L203.156 294.487L201.531 290.832L124.651 325.018L126.276 328.673Z" fill="black" mask="url(#path-1-inside-1_461_22)"/>
</svg>
