<svg width="351" height="353" fill="none" xmlns="http://www.w3.org/2000/svg"><mask id="a" fill="#fff"><path fill-rule="evenodd" clip-rule="evenodd" d="M175.2 1c.8-.3 1.5-.3 2.2 0L336 63.1l1.4.6c7.8 2.7 13.4 10.1 13.4 18.9v188c0 8.7-5.6 16.2-13.4 18.9l-1.4.5-158.6 62.2c-.7.3-1.4.3-2.2 0l-144-56.4c-9.4-3.8-20.7-5.4-26.6-13.5C2.2 279 .8 275 .8 270.6v-188c0-4.4 1.4-8.4 3.8-11.7 5.9-8.2 17.2-9.9 26.6-13.5L175.2 1z"/></mask><path fill-rule="evenodd" clip-rule="evenodd" d="M175.2 1c.8-.3 1.5-.3 2.2 0L336 63.1l1.4.6c7.8 2.7 13.4 10.1 13.4 18.9v188c0 8.7-5.6 16.2-13.4 18.9l-1.4.5-158.6 62.2c-.7.3-1.4.3-2.2 0l-144-56.4c-9.4-3.8-20.7-5.4-26.6-13.5C2.2 279 .8 275 .8 270.6v-188c0-4.4 1.4-8.4 3.8-11.7 5.9-8.2 17.2-9.9 26.6-13.5L175.2 1z" fill="#F5BD41"/><path d="M177.4 1l.7-2-.7 2zm-2.2 0l-.7-2 .7 2zm2.2 351.2l.7 1.8-.7-1.8zm-2.2 0l-.7 1.8.7-1.8zm-144-56.4l-.7 1.8.7-1.8zM4.6 282.3l1.6-1.3-1.6 1.3zm332.8 7.2l.6 1.9-.6-1.9zm0-225.8l.6-1.9-.6 1.9zM178.1-1c-1.1-.4-2.4-.4-3.6 0l1.5 3.8h.7l1.4-3.8zm158.7 62.2L178.1-1l-1.4 3.8L335.3 65l1.5-3.8zm16 21.4c0-9.6-6.2-17.8-14.8-20.8l-1.3 3.8c7.1 2.4 12.1 9.1 12.1 17h4zm0 188v-188h-4v188h4zM338 291.4c8.6-3 14.8-11.2 14.8-20.8h-4c0 7.8-5 14.5-12.1 17l1.3 3.8zm-2.7-3.2l-158.6 62.1 1.4 3.7 158.7-62.1-1.5-3.7zm-158.6 62.1h-.7l-1.5 3.7c1.2.5 2.5.5 3.6 0l-1.4-3.7zm-.7 0L32 293.9l-1.5 3.7 144 56.4 1.5-3.7zM-1.2 270.6c0 4.8 1.6 9.2 4.2 12.8l3.2-2.4c-2.2-2.9-3.4-6.5-3.4-10.4h-4zm0-188v188h4v-188h-4zM3 69.7c-2.6 3.6-4.2 8.1-4.2 12.9h4c0-4 1.2-7.6 3.4-10.6L3 69.7zM174.5-1l-144 56.5 1.5 3.7L176 2.8 174.5-1zM32 293.9l-7.5-2.6c-2.5-.8-4.9-1.5-7.2-2.5-4.6-1.8-8.5-4.1-11.1-7.8L3 283.4c3.3 4.6 8 7.2 12.9 9.2 2.4.9 4.9 1.8 7.4 2.5l7.2 2.5 1.5-3.7zm304.7-6.3l-.8.4-.6.2 1.5 3.7.7-.3.5-.2-1.3-3.8zM6.2 72c2.6-3.6 6.5-5.9 11.1-7.7l7.2-2.5c2.5-.8 5-1.6 7.5-2.6l-1.5-3.7-7.2 2.5c-2.5.8-5 1.6-7.4 2.6C11 62.5 6.3 65.2 3 69.7L6.2 72zm329.1-7l.6.2.8.4 1.3-3.8-.5-.2-.7-.4-1.5 3.8z" fill="#000" mask="url(#a)"/></svg>