<svg width="485" height="368" viewBox="0 0 485 368" fill="none" xmlns="http://www.w3.org/2000/svg">
<mask id="path-1-inside-1_279_86" fill="white">
<path fill-rule="evenodd" clip-rule="evenodd" d="M142.387 351.996C84.1345 390.87 5.88196 350.344 4.0169 280.336L0.411333 144.995C-1.39315 77.2611 70.14 32.4344 130.308 63.5945L145.258 71.3368L183.041 39.6403C219.697 8.88812 269.306 12.7789 301.543 39.7287L329.247 18.6164C384.95 -23.832 465.588 11.7096 471.837 81.463L483.918 216.312C489.964 283.8 421.381 333.022 359.378 305.694L328.009 291.868C303.968 318.527 264.843 330.969 226.659 316.382L207.006 308.875L142.387 351.996Z"/>
</mask>
<path fill-rule="evenodd" clip-rule="evenodd" d="M142.387 351.996C84.1345 390.87 5.88196 350.344 4.0169 280.336L0.411333 144.995C-1.39315 77.2611 70.14 32.4344 130.308 63.5945L145.258 71.3368L183.041 39.6403C219.697 8.88812 269.306 12.7789 301.543 39.7287L329.247 18.6164C384.95 -23.832 465.588 11.7096 471.837 81.463L483.918 216.312C489.964 283.8 421.381 333.022 359.378 305.694L328.009 291.868C303.968 318.527 264.843 330.969 226.659 316.382L207.006 308.875L142.387 351.996Z" fill="#F5BD41"/>
<path d="M4.0169 280.336L2.01761 280.39L4.0169 280.336ZM142.387 351.996L141.277 350.333L142.387 351.996ZM0.411333 144.995L2.41062 144.942L0.411333 144.995ZM130.308 63.5945L131.228 61.8185L130.308 63.5945ZM145.258 71.3368L144.339 73.1128L145.522 73.7258L146.544 72.869L145.258 71.3368ZM183.041 39.6403L184.326 41.1725L183.041 39.6403ZM301.543 39.7287L300.261 41.2631L301.486 42.2872L302.756 41.3194L301.543 39.7287ZM329.247 18.6164L328.035 17.0257L329.247 18.6164ZM471.837 81.463L473.829 81.2845L471.837 81.463ZM483.918 216.312L485.91 216.134L483.918 216.312ZM359.378 305.694L358.572 307.524L359.378 305.694ZM328.009 291.868L328.815 290.038L327.492 289.455L326.523 290.529L328.009 291.868ZM226.659 316.382L227.373 314.514L226.659 316.382ZM207.006 308.875L207.719 307.006L206.755 306.638L205.896 307.211L207.006 308.875ZM2.01761 280.39C3.92458 351.971 83.9356 393.407 143.498 353.66L141.277 350.333C84.3334 388.333 7.83934 348.718 6.01619 280.283L2.01761 280.39ZM-1.58796 145.049L2.01761 280.39L6.01619 280.283L2.41062 144.942L-1.58796 145.049ZM131.228 61.8185C69.7077 29.9582 -3.43299 75.7922 -1.58796 145.049L2.41062 144.942C0.646679 78.7299 70.5724 34.9106 129.389 65.3704L131.228 61.8185ZM146.178 69.5608L131.228 61.8185L129.389 65.3704L144.339 73.1128L146.178 69.5608ZM146.544 72.869L184.326 41.1725L181.755 38.1081L143.973 69.8046L146.544 72.869ZM184.326 41.1725C220.176 11.0972 268.7 14.8794 300.261 41.2631L302.826 38.1942C269.912 10.6784 219.219 6.67899 181.755 38.1081L184.326 41.1725ZM328.035 17.0257L300.331 38.138L302.756 41.3194L330.46 20.2071L328.035 17.0257ZM473.829 81.2845C467.44 9.96365 384.989 -26.3766 328.035 17.0257L330.46 20.2071C384.91 -21.2874 463.736 13.4555 469.845 81.6414L473.829 81.2845ZM485.91 216.134L473.829 81.2845L469.845 81.6414L481.926 216.491L485.91 216.134ZM358.572 307.524C421.968 335.466 492.092 285.138 485.91 216.134L481.926 216.491C487.836 282.462 420.795 330.578 360.185 303.864L358.572 307.524ZM327.202 293.698L358.572 307.524L360.185 303.864L328.815 290.038L327.202 293.698ZM326.523 290.529C302.99 316.626 264.722 328.782 227.373 314.514L225.945 318.251C264.964 333.156 304.947 320.428 329.494 293.207L326.523 290.529ZM227.373 314.514L207.719 307.006L206.292 310.743L225.945 318.251L227.373 314.514ZM143.498 353.66L208.116 310.538L205.896 307.211L141.277 350.333L143.498 353.66Z" fill="black" mask="url(#path-1-inside-1_279_86)"/>
</svg>
