<svg width="481" height="362" viewBox="0 0 481 362" fill="none" xmlns="http://www.w3.org/2000/svg">
<mask id="path-1-inside-1_258_1370" fill="white">
<path fill-rule="evenodd" clip-rule="evenodd" d="M34.2648 96.8974C10.7402 108.383 -2.6226 133.794 1.24756 159.685L23.0289 305.4C28.4177 341.45 62.0107 366.306 98.061 360.917L424.435 312.131C460.485 306.742 485.341 273.15 479.952 237.099L459.232 98.4823C455.445 73.1455 435.988 53.0082 410.797 48.3519L377.328 42.1658C371.158 41.0253 365.504 39.1355 360.387 36.634C331.745 22.6336 302.395 -3.29278 270.865 1.42034L150.192 19.4585C118.032 24.2657 96.7085 60.4575 69.8776 78.8272C67.5924 80.3917 65.1301 81.8284 62.4879 83.1184L34.2648 96.8974Z"/>
</mask>
<path fill-rule="evenodd" clip-rule="evenodd" d="M34.2648 96.8974C10.7402 108.383 -2.6226 133.794 1.24756 159.685L23.0289 305.4C28.4177 341.45 62.0107 366.306 98.061 360.917L424.435 312.131C460.485 306.742 485.341 273.15 479.952 237.099L459.232 98.4823C455.445 73.1455 435.988 53.0082 410.797 48.3519L377.328 42.1658C371.158 41.0253 365.504 39.1355 360.387 36.634C331.745 22.6336 302.395 -3.29278 270.865 1.42034L150.192 19.4585C118.032 24.2657 96.7085 60.4575 69.8776 78.8272C67.5924 80.3917 65.1301 81.8284 62.4879 83.1184L34.2648 96.8974Z" fill="#F5BD41"/>
<path d="M377.328 42.1658L377.692 40.1991L377.328 42.1658ZM62.4879 83.1184L63.3654 84.9156L62.4879 83.1184ZM410.797 48.3519L410.433 50.3186L410.797 48.3519ZM34.2648 96.8974L33.3874 95.1002L34.2648 96.8974ZM25.007 305.104L3.22558 159.389L-0.730466 159.981L21.0509 305.696L25.007 305.104ZM97.7653 358.939C62.8075 364.165 30.2324 340.062 25.007 305.104L21.0509 305.696C26.603 342.838 61.2139 368.448 98.3566 362.895L97.7653 358.939ZM424.139 310.153L97.7653 358.939L98.3566 362.895L424.731 314.109L424.139 310.153ZM477.974 237.395C483.2 272.353 459.097 304.928 424.139 310.153L424.731 314.109C461.873 308.557 487.482 273.946 481.93 236.804L477.974 237.395ZM457.254 98.778L477.974 237.395L481.93 236.804L461.21 98.1866L457.254 98.778ZM376.965 44.1324L410.433 50.3186L411.16 46.3852L377.692 40.1991L376.965 44.1324ZM359.509 38.4308C364.792 41.0137 370.62 42.9597 376.965 44.1324L377.692 40.1991C371.697 39.0909 366.216 37.2574 361.265 34.8372L359.509 38.4308ZM150.487 21.4366L271.161 3.39836L270.569 -0.557683L149.896 17.4805L150.487 21.4366ZM68.7477 77.1769C66.5443 78.6854 64.1665 80.0732 61.6105 81.3212L63.3654 84.9156C66.0936 83.5837 68.6404 82.098 71.0074 80.4774L68.7477 77.1769ZM61.6105 81.3212L33.3874 95.1002L35.1423 98.6947L63.3654 84.9156L61.6105 81.3212ZM149.896 17.4805C133.165 19.9814 119.408 30.6203 106.666 42.5998C93.7602 54.7343 81.9954 68.1069 68.7477 77.1769L71.0074 80.4774C84.5906 71.1778 96.9031 57.2697 109.406 45.514C122.074 33.6035 135.059 23.7429 150.487 21.4366L149.896 17.4805ZM361.265 34.8372C354.189 31.3783 347.052 27.1739 339.772 22.8438C332.517 18.528 325.12 14.0865 317.624 10.2311C302.652 2.53025 286.966 -3.00859 270.569 -0.557683L271.161 3.39836C286.295 1.13615 301.049 6.20392 315.794 13.7881C323.157 17.5752 330.438 21.9457 337.727 26.2815C344.992 30.6029 352.264 34.8895 359.509 38.4308L361.265 34.8372ZM461.21 98.1866C457.296 72.0053 437.192 51.1968 411.16 46.3852L410.433 50.3186C434.785 54.8197 453.593 74.2857 457.254 98.778L461.21 98.1866ZM3.22558 159.389C-0.515576 134.361 12.4018 109.797 35.1423 98.6947L33.3874 95.1002C9.07859 106.968 -4.72963 133.227 -0.730466 159.981L3.22558 159.389Z" fill="black" mask="url(#path-1-inside-1_258_1370)"/>
</svg>
