<svg width="467" height="356" fill="none" xmlns="http://www.w3.org/2000/svg"><mask id="a" fill="#fff"><path fill-rule="evenodd" clip-rule="evenodd" d="M254.3 7.2c-11.1-8.5-26.5-8.5-37.7 0L18.7 158.8c-9 6.9-17.1 17.2-18.2 28.4l-.1 2.1v10.8c0 11.9 3.1 23.7 8.9 34.2l47.8 85.5c12.4 22.2 35.8 35.8 61.1 35.8h232.5c26.5 0 50.7-14.9 62.6-38.6l45.4-90.8c4.9-9.8 7.4-20.5 7.4-31.4v-5.5c0-5.8-1.5-11.6-3.6-17-1.9-5-5.2-9.7-10.2-13.5L254.3 7.2z"/></mask><path fill-rule="evenodd" clip-rule="evenodd" d="M254.3 7.2c-11.1-8.5-26.5-8.5-37.7 0L18.7 158.8c-9 6.9-17.1 17.2-18.2 28.4l-.1 2.1v10.8c0 11.9 3.1 23.7 8.9 34.2l47.8 85.5c12.4 22.2 35.8 35.8 61.1 35.8h232.5c26.5 0 50.7-14.9 62.6-38.6l45.4-90.8c4.9-9.8 7.4-20.5 7.4-31.4v-5.5c0-5.8-1.5-11.6-3.6-17-1.9-5-5.2-9.7-10.2-13.5L254.3 7.2z" fill="#F5BD41"/><path fill-rule="evenodd" clip-rule="evenodd" d="M254.3 7.2c-11.1-8.5-26.5-8.5-37.7 0L18.7 158.8c-9 6.9-17.1 17.2-18.2 28.4l-.1 2.1v10.8c0 11.9 3.1 23.7 8.9 34.2l47.8 85.5c12.4 22.2 35.8 35.8 61.1 35.8h232.5c26.5 0 50.7-14.9 62.6-38.6l45.4-90.8c4.9-9.8 7.4-20.5 7.4-31.4v-5.5c0-5.8-1.5-11.6-3.6-17-1.9-5-5.2-9.7-10.2-13.5L254.3 7.2z" fill="#F5BD41"/><path fill-rule="evenodd" clip-rule="evenodd" d="M254.3 7.2c-11.1-8.5-26.5-8.5-37.7 0L18.7 158.8c-9 6.9-17.1 17.2-18.2 28.4l-.1 2.1v10.8c0 11.9 3.1 23.7 8.9 34.2l47.8 85.5c12.4 22.2 35.8 35.8 61.1 35.8h232.5c26.5 0 50.7-14.9 62.6-38.6l45.4-90.8c4.9-9.8 7.4-20.5 7.4-31.4v-5.5c0-5.8-1.5-11.6-3.6-17-1.9-5-5.2-9.7-10.2-13.5L254.3 7.2z" fill="#F5BD41"/><path d="M216.6 7.2l-1.2-1.6 1.2 1.6zm37.7 0l1.2-1.6-1.2 1.6zm198 151.6l-1.3 1.6 1.3-1.6zm10.2 13.5l1.9-.7-1.9.7zm-453.2 62l1.7-1-1.7 1zm449.4-8.1l1.8.8-1.8-.8zM217.8 8.8c10.5-8 24.9-8 35.3 0l2.4-3.2c-11.8-9.1-28.2-9.1-40.1 0l2.4 3.2zM19.9 160.4L217.8 8.8l-2.4-3.2-198 151.6 2.5 3.2zM2.4 189.3l.1-1.9-4-.4-.1 2.3h4zm0 10.8v-10.8h-4v10.8h4zm5.2 35.1l47.8 85.6 3.5-2L11 233.3l-3.4 1.9zm343.1 118.4H118.2v4h232.5v-4zM457 225.3L411.5 316l3.5 1.9 45.5-90.9-3.5-1.7zm7.1-36v5.5h4v-5.5h-4zM451 160.4c4.8 3.6 7.9 7.9 9.7 12.6l3.7-1.4c-2-5.4-5.6-10.4-10.9-14.4l-2.5 3.2zM253.1 8.8L451 160.4l2.5-3.2-198-151.6-2.4 3.2zm215 180.5c0-6.1-1.6-12.2-3.7-17.7l-3.7 1.4c2 5.3 3.4 10.9 3.4 16.3h4zM350.7 357.6c27.3 0 52.1-15.4 64.3-39.7l-3.5-1.9c-11.5 23-35.1 37.6-60.8 37.6v4zM55.4 320.8c12.6 22.7 36.7 36.8 62.8 36.8v-4c-24.6 0-47.3-13.3-59.3-34.8l-3.5 2zm-57-120.7c0 12.3 3.2 24.4 9.2 35.1l3.4-1.9c-5.6-10.2-8.6-21.6-8.6-33.2h-4zM460.5 227c5-10 7.6-21 7.6-32.2h-4c0 10.6-2.4 21-7.1 30.5l3.5 1.7zM17.4 157.2C8.3 164.2-.3 175-1.5 187l4 .4c1-10.4 8.6-20.4 17.4-27l-2.5-3.2z" fill="#000" mask="url(#a)"/></svg>