<svg width="465" height="368" viewBox="0 0 465 368" fill="none" xmlns="http://www.w3.org/2000/svg">
<mask id="path-1-inside-1_293_191" fill="white">
<path fill-rule="evenodd" clip-rule="evenodd" d="M229.809 4.60446C217.707 -2.45105 202.376 -0.51354 192.41 9.33109L15.0145 184.561C6.97772 192.5 0.228692 203.72 0.562597 215.012C0.583492 215.719 0.63848 216.431 0.728935 217.146L2.08028 227.839C3.57966 239.702 8.09323 250.984 15.1906 260.608L73.3377 339.456C88.3871 359.863 113.296 370.536 138.452 367.357L369.075 338.21C395.365 334.887 417.525 317.004 426.325 292.01L460.05 196.226C463.664 185.963 464.835 174.997 463.471 164.202L462.781 158.75C462.055 153.001 459.804 147.414 457.074 142.303C454.545 137.567 450.632 133.343 445.223 130.19L229.809 4.60446Z"/>
</mask>
<path fill-rule="evenodd" clip-rule="evenodd" d="M229.809 4.60446C217.707 -2.45105 202.376 -0.51354 192.41 9.33109L15.0145 184.561C6.97772 192.5 0.228692 203.72 0.562597 215.012C0.583492 215.719 0.63848 216.431 0.728935 217.146L2.08028 227.839C3.57966 239.702 8.09323 250.984 15.1906 260.608L73.3377 339.456C88.3871 359.863 113.296 370.536 138.452 367.357L369.075 338.21C395.365 334.887 417.525 317.004 426.325 292.01L460.05 196.226C463.664 185.963 464.835 174.997 463.471 164.202L462.781 158.75C462.055 153.001 459.804 147.414 457.074 142.303C454.545 137.567 450.632 133.343 445.223 130.19L229.809 4.60446Z" fill="#F5BD41"/>
<path fill-rule="evenodd" clip-rule="evenodd" d="M229.809 4.60446C217.707 -2.45105 202.376 -0.51354 192.41 9.33109L15.0145 184.561C6.97772 192.5 0.228692 203.72 0.562597 215.012C0.583492 215.719 0.63848 216.431 0.728935 217.146L2.08028 227.839C3.57966 239.702 8.09323 250.984 15.1906 260.608L73.3377 339.456C88.3871 359.863 113.296 370.536 138.452 367.357L369.075 338.21C395.365 334.887 417.525 317.004 426.325 292.01L460.05 196.226C463.664 185.963 464.835 174.997 463.471 164.202L462.781 158.75C462.055 153.001 459.804 147.414 457.074 142.303C454.545 137.567 450.632 133.343 445.223 130.19L229.809 4.60446Z" fill="#F5BD41"/>
<path fill-rule="evenodd" clip-rule="evenodd" d="M229.809 4.60446C217.707 -2.45105 202.376 -0.51354 192.41 9.33109L15.0145 184.561C6.97772 192.5 0.228692 203.72 0.562597 215.012C0.583492 215.719 0.63848 216.431 0.728935 217.146L2.08028 227.839C3.57966 239.702 8.09323 250.984 15.1906 260.608L73.3377 339.456C88.3871 359.863 113.296 370.536 138.452 367.357L369.075 338.21C395.365 334.887 417.525 317.004 426.325 292.01L460.05 196.226C463.664 185.963 464.835 174.997 463.471 164.202L462.781 158.75C462.055 153.001 459.804 147.414 457.074 142.303C454.545 137.567 450.632 133.343 445.223 130.19L229.809 4.60446Z" fill="#F5BD41"/>
<path d="M192.41 9.33109L191.005 7.90822L191.005 7.90822L192.41 9.33109ZM229.809 4.60446L230.816 2.87665L229.809 4.60446ZM445.223 130.19L444.216 131.918L445.223 130.19ZM457.074 142.303L458.838 141.361L457.074 142.303ZM73.3377 339.456L71.728 340.643L73.3377 339.456ZM460.05 196.226L458.163 195.562L460.05 196.226ZM463.471 164.202L461.486 164.453L463.471 164.202ZM193.816 10.754C203.139 1.54446 217.48 -0.268042 228.801 6.33227L230.816 2.87665C217.933 -4.63406 201.614 -2.57155 191.005 7.90822L193.816 10.754ZM16.42 185.984L193.816 10.754L191.005 7.90822L13.609 183.139L16.42 185.984ZM2.71315 216.896C2.63075 216.244 2.58073 215.596 2.56172 214.953L-1.43653 215.071C-1.41374 215.842 -1.35379 216.618 -1.25528 217.397L2.71315 216.896ZM4.06449 227.588L2.71315 216.896L-1.25528 217.397L0.0960617 228.089L4.06449 227.588ZM13.5809 261.795L71.728 340.643L74.9473 338.269L16.8002 259.421L13.5809 261.795ZM368.825 336.225L138.201 365.373L138.703 369.341L369.326 340.194L368.825 336.225ZM458.163 195.562L424.439 291.345L428.212 292.674L461.936 196.891L458.163 195.562ZM460.797 159.001L461.486 164.453L465.455 163.951L464.766 158.499L460.797 159.001ZM444.216 131.918C449.307 134.886 452.956 138.838 455.31 143.245L458.838 141.361C456.133 136.296 451.958 131.801 446.23 128.462L444.216 131.918ZM228.801 6.33227L444.216 131.918L446.23 128.462L230.816 2.87665L228.801 6.33227ZM464.766 158.499C463.997 152.416 461.629 146.586 458.838 141.361L455.31 143.245C457.979 148.243 460.113 153.587 460.797 159.001L464.766 158.499ZM369.326 340.194C396.367 336.776 419.16 318.383 428.212 292.674L424.439 291.345C415.89 315.626 394.363 332.998 368.825 336.225L369.326 340.194ZM71.728 340.643C87.2075 361.633 112.828 372.611 138.703 369.341L138.201 365.373C113.764 368.461 89.5668 358.093 74.9473 338.269L71.728 340.643ZM0.0960617 228.089C1.63828 240.292 6.28081 251.896 13.5809 261.795L16.8002 259.421C9.90564 250.072 5.52103 239.113 4.06449 227.588L0.0960617 228.089ZM461.936 196.891C465.653 186.334 466.858 175.055 465.455 163.951L461.486 164.453C462.812 174.94 461.674 185.592 458.163 195.562L461.936 196.891ZM13.609 183.139C5.38155 191.266 -1.79375 202.991 -1.43653 215.071L2.56172 214.953C2.25113 204.45 8.57388 193.735 16.42 185.984L13.609 183.139Z" fill="black" mask="url(#path-1-inside-1_293_191)"/>
</svg>
