<svg width="487" height="308" viewBox="0 0 487 308" fill="none" xmlns="http://www.w3.org/2000/svg">
<mask id="path-1-inside-1_293_104" fill="white">
<path fill-rule="evenodd" clip-rule="evenodd" d="M448.102 182.236C460.937 163.602 472.311 143.541 482.021 122.46C493.574 97.379 478.904 69.0118 452.635 60.4993L290.438 7.94014C290.438 7.94013 290.438 7.94014 290.438 7.94015C290.438 7.94016 290.438 7.94016 290.438 7.94016C262.892 -0.98597 233.173 -2.28864 202.979 4.10652C172.785 10.5018 142.707 24.4697 114.462 45.2127C86.2164 65.9558 60.3575 93.0678 38.3613 125.001C25.5264 143.634 14.1532 163.696 4.4428 184.776C-7.11055 209.857 7.55962 238.225 33.8291 246.737L196.025 299.296C196.025 299.296 196.026 299.296 196.026 299.296C223.572 308.222 253.29 309.525 283.484 303.13C313.679 296.735 343.757 282.767 372.002 262.024C400.247 241.281 426.106 214.169 448.102 182.236Z"/>
</mask>
<path fill-rule="evenodd" clip-rule="evenodd" d="M448.102 182.236C460.937 163.602 472.311 143.541 482.021 122.46C493.574 97.379 478.904 69.0118 452.635 60.4993L290.438 7.94014C290.438 7.94013 290.438 7.94014 290.438 7.94015C290.438 7.94016 290.438 7.94016 290.438 7.94016C262.892 -0.98597 233.173 -2.28864 202.979 4.10652C172.785 10.5018 142.707 24.4697 114.462 45.2127C86.2164 65.9558 60.3575 93.0678 38.3613 125.001C25.5264 143.634 14.1532 163.696 4.4428 184.776C-7.11055 209.857 7.55962 238.225 33.8291 246.737L196.025 299.296C196.025 299.296 196.026 299.296 196.026 299.296C223.572 308.222 253.29 309.525 283.484 303.13C313.679 296.735 343.757 282.767 372.002 262.024C400.247 241.281 426.106 214.169 448.102 182.236Z" fill="#F5BD41"/>
<path d="M448.102 182.236L446.455 181.101L446.455 181.101L448.102 182.236ZM202.979 4.10652L202.565 2.14992L202.565 2.14993L202.979 4.10652ZM114.462 45.2127L113.278 43.6007L114.462 45.2127ZM38.3613 125.001L40.0084 126.135L38.3613 125.001ZM196.025 299.296L196.642 297.393L196.025 299.296ZM196.026 299.296L195.409 301.199L196.026 299.296ZM283.484 303.13L283.899 305.086L283.484 303.13ZM372.002 262.024L373.186 263.636L373.186 263.636L372.002 262.024ZM290.438 7.94016L291.054 6.03755L290.438 7.94016ZM290.438 7.94014L291.055 6.03754L290.438 7.94014ZM482.021 122.46L480.204 121.623L482.021 122.46ZM480.204 121.623C470.54 142.603 459.223 162.565 446.455 181.101L449.75 183.37C462.651 164.64 474.081 144.478 483.838 123.297L480.204 121.623ZM289.821 9.84274L452.018 62.4019L453.251 58.5967L291.055 6.03754L289.821 9.84274ZM203.394 6.06312C233.269 -0.26446 262.63 1.03167 289.821 9.84276L291.054 6.03755C263.153 -3.00361 233.078 -4.31281 202.565 2.14992L203.394 6.06312ZM115.645 46.8247C143.693 26.2271 173.513 12.392 203.394 6.06311L202.565 2.14993C172.057 8.61155 141.721 22.7122 113.278 43.6007L115.645 46.8247ZM40.0084 126.135C61.8913 94.3668 87.5983 67.4223 115.645 46.8247L113.278 43.6007C84.8345 64.4893 58.8237 91.7689 36.7143 123.866L40.0084 126.135ZM6.25933 185.613C15.9235 164.633 27.2404 144.671 40.0084 126.135L36.7143 123.866C23.8123 142.597 12.383 162.758 2.62626 183.939L6.25933 185.613ZM196.642 297.393L34.4456 244.834L33.2125 248.64L195.409 301.199L196.642 297.393ZM196.642 297.394C196.674 297.404 196.701 297.413 196.723 297.422C196.745 297.43 196.764 297.437 196.778 297.443C196.792 297.449 196.803 297.453 196.809 297.456C196.813 297.458 196.816 297.459 196.817 297.459C196.819 297.46 196.82 297.461 196.82 297.461L196.82 297.461C196.82 297.461 196.82 297.461 196.82 297.461C196.82 297.461 196.82 297.46 196.82 297.46C196.819 297.46 196.819 297.46 196.819 297.46C196.819 297.46 196.818 297.46 196.817 297.459C196.815 297.459 196.813 297.458 196.809 297.456C196.803 297.453 196.792 297.449 196.778 297.443C196.764 297.437 196.745 297.43 196.723 297.422C196.701 297.413 196.673 297.404 196.642 297.393L195.409 301.199C195.377 301.188 195.35 301.179 195.328 301.171C195.306 301.162 195.287 301.155 195.273 301.149C195.259 301.144 195.248 301.139 195.242 301.136C195.238 301.135 195.236 301.134 195.234 301.133C195.232 301.132 195.231 301.132 195.231 301.132C195.231 301.132 195.231 301.132 195.231 301.132C195.231 301.132 195.231 301.132 195.231 301.132C195.231 301.132 195.232 301.132 195.232 301.132C195.232 301.132 195.232 301.132 195.232 301.132C195.233 301.132 195.233 301.132 195.234 301.133C195.236 301.134 195.238 301.135 195.242 301.136C195.248 301.139 195.26 301.144 195.274 301.149C195.288 301.155 195.306 301.162 195.328 301.171C195.351 301.179 195.378 301.189 195.409 301.199L196.642 297.394ZM283.07 301.173C253.195 307.501 223.833 306.205 196.642 297.394L195.409 301.199C223.31 310.24 253.386 311.549 283.899 305.086L283.07 301.173ZM370.818 260.412C342.771 281.009 312.951 294.844 283.07 301.173L283.899 305.086C314.406 298.625 344.743 284.524 373.186 263.636L370.818 260.412ZM446.455 181.101C424.572 212.87 398.865 239.814 370.818 260.412L373.186 263.636C401.629 242.747 427.64 215.467 449.75 183.37L446.455 181.101ZM288.535 7.32362C288.89 6.22913 290.048 5.7114 291.054 6.03755L289.821 9.84276C290.828 10.1689 291.986 9.65118 292.341 8.55668L288.535 7.32362ZM2.62626 183.939C-9.49583 210.255 5.96237 239.809 33.2125 248.64L34.4456 244.834C9.15687 236.64 -4.72526 209.459 6.25933 185.613L2.62626 183.939ZM291.055 6.03754C290.004 5.69703 288.876 6.27283 288.535 7.32362L292.341 8.55668C292 9.60745 290.872 10.1832 289.821 9.84274L291.055 6.03754ZM483.838 123.297C495.96 96.981 480.501 67.427 453.251 58.5967L452.018 62.4019C477.307 70.5966 491.189 97.7769 480.204 121.623L483.838 123.297Z" fill="black" mask="url(#path-1-inside-1_293_104)"/>
</svg>
