<svg width="322" height="437" fill="none" xmlns="http://www.w3.org/2000/svg"><mask id="a" fill="#fff"><path fill-rule="evenodd" clip-rule="evenodd" d="M242 47c-33-62-121-63-156-2L13 173C1 192-1 213 2 232c1 12 5 24 11 36l65 120c34 64 125 65 161 2l67-120 1-2c17-26 20-60 4-90L242 47z"/></mask><path fill-rule="evenodd" clip-rule="evenodd" d="M242 47c-33-62-121-63-156-2L13 173C1 192-1 213 2 232c1 12 5 24 11 36l65 120c34 64 125 65 161 2l67-120 1-2c17-26 20-60 4-90L242 47z" fill="#F5BD41"/><path d="M86 45l-2-1 2 1zm156 2l2-1-2 1zM13 173l-2-1 2 1zM2 232h2-2zm11 36l2-1-2 1zm65 120l2-1-2 1zm161 2l2 1-2-1zm67-120l1 1-1-1zm1-2l-2-1 2 1zm4-90l2-1-2 1zM88 46c34-60 120-58 152 2l4-2c-34-63-124-64-160-2l4 2zM14 174L88 46l-4-2-73 128 3 2zM4 232c-3-19-1-39 10-58l-3-2C0 191-3 213 0 233l4-1zm11 35c-7-11-10-23-11-35l-4 1c1 12 5 24 11 36l4-2zm65 120L15 267l-4 2 65 120 4-2zm157 2c-35 61-124 61-157-2l-4 2c35 65 128 66 165 2l-4-2zm67-120l-67 120 4 2 66-120-3-2zm1-2l-1 2 3 2 2-2-4-2zm4-88c16 30 13 63-4 88l4 2c17-26 21-61 4-92l-4 2zM240 48l69 131 4-2-69-131-4 2z" fill="#000" mask="url(#a)"/></svg>