<svg width="429" height="359" viewBox="0 0 429 359" fill="none" xmlns="http://www.w3.org/2000/svg">
<mask id="path-1-inside-1_410_3" fill="white">
<path d="M425.747 138.623C444.44 234.79 365.069 331.124 248.466 353.789C131.863 376.454 22.1835 316.869 3.4904 220.701C-15.2027 124.533 64.1689 28.2003 180.772 5.53503C297.375 -17.1303 407.054 42.4551 425.747 138.623Z"/>
</mask>
<path d="M425.747 138.623C444.44 234.79 365.069 331.124 248.466 353.789C131.863 376.454 22.1835 316.869 3.4904 220.701C-15.2027 124.533 64.1689 28.2003 180.772 5.53503C297.375 -17.1303 407.054 42.4551 425.747 138.623Z" fill="#F5BD41"/>
<path d="M423.784 139.004C442.201 233.751 363.974 329.299 248.084 351.826L248.847 355.752C366.164 332.948 446.68 235.83 427.71 138.241L423.784 139.004ZM248.084 351.826C132.194 374.352 23.8705 315.066 5.45365 220.32L1.52715 221.083C20.4965 318.672 131.531 378.556 248.847 355.752L248.084 351.826ZM5.45365 220.32C-12.9632 125.573 65.2639 30.0249 181.154 7.49828L180.39 3.57177C63.0739 26.3758 -17.4422 123.494 1.52715 221.083L5.45365 220.32ZM181.154 7.49828C297.043 -15.0284 405.367 44.258 423.784 139.004L427.71 138.241C408.741 40.6523 297.707 -19.2322 180.39 3.57177L181.154 7.49828Z" fill="black" mask="url(#path-1-inside-1_410_3)"/>
</svg>
