<svg width="447" height="324" fill="none" xmlns="http://www.w3.org/2000/svg"><mask id="a" fill="#fff"><path fill-rule="evenodd" clip-rule="evenodd" d="M390 225.2c5.6 15.8 25.7 20.5 35 6.5 14-21.2 22-44.9 22-70C447 72.4 347 0 223.5 0S0 72.4 0 161.7C0 251 100 323.3 223.5 323.3c10.9 0 21.7-.5 32.2-1.6 21.7-2.3 39.6-17.4 48.7-37.3l28.2-62c11.6-25.4 48.4-23.7 57.4 2.8z"/></mask><path fill-rule="evenodd" clip-rule="evenodd" d="M390 225.2c5.6 15.8 25.7 20.5 35 6.5 14-21.2 22-44.9 22-70C447 72.4 347 0 223.5 0S0 72.4 0 161.7C0 251 100 323.3 223.5 323.3c10.9 0 21.7-.5 32.2-1.6 21.7-2.3 39.6-17.4 48.7-37.3l28.2-62c11.6-25.4 48.4-23.7 57.4 2.8z" fill="#F5BD41"/><path fill-rule="evenodd" clip-rule="evenodd" d="M390 225.2c5.6 15.8 25.7 20.5 35 6.5 14-21.2 22-44.9 22-70C447 72.4 347 0 223.5 0S0 72.4 0 161.7C0 251 100 323.3 223.5 323.3c10.9 0 21.7-.5 32.2-1.6 21.7-2.3 39.6-17.4 48.7-37.3l28.2-62c11.6-25.4 48.4-23.7 57.4 2.8z" fill="#F5BD41"/><path fill-rule="evenodd" clip-rule="evenodd" d="M390 225.2c5.6 15.8 25.7 20.5 35 6.5 14-21.2 22-44.9 22-70C447 72.4 347 0 223.5 0S0 72.4 0 161.7C0 251 100 323.3 223.5 323.3c10.9 0 21.7-.5 32.2-1.6 21.7-2.3 39.6-17.4 48.7-37.3l28.2-62c11.6-25.4 48.4-23.7 57.4 2.8z" fill="#F5BD41"/><path d="M332.6 222.4l-1.8-.8 1.8.8zm-76.9 99.3l-.3-2 .3 2zm48.7-37.3l-1.8-.8 1.8.8zM425 231.7l-1.7-1.1 1.7 1.1zm20-70c0 24.6-7.8 48-21.7 68.9l3.3 2.2c14.4-21.4 22.4-45.6 22.4-71.1h-4zM223.5 2c61.3 0 116.8 18 156.9 47 40 29 64.6 68.8 64.6 112.7h4c0-45.5-25.5-86.4-66.3-116C341.9 16.2 285.6-2 223.5-2v4zM2 161.7C2 117.8 26.6 78 66.6 49c40.1-29 95.6-47 156.9-47v-4C161.4-2 105.1 16.2 64.3 45.7 23.5 75.3-2 116.2-2 161.7h4zm221.5 159.6c-61.3 0-116.8-18-156.9-46.9-40-29-64.6-68.9-64.6-112.7h-4c0 45.4 25.5 86.3 66.3 115.9 40.8 29.5 97.1 47.7 159.2 47.7v-4zm31.9-1.6c-10.4 1.1-21.1 1.6-31.9 1.6v4c11 0 21.8-.6 32.4-1.7l-.5-3.9zm50.8-34.5l28.2-61.9-3.6-1.7-28.2 62 3.6 1.6zm28.2-61.9c10.8-23.9 45.3-22.3 53.8 2.5l3.8-1.3c-9.7-28.2-48.9-30-61.2-2.9l3.6 1.7zm-78.5 100.3c22.6-2.3 41-17.9 50.3-38.4l-3.6-1.6c-8.9 19.4-26.2 33.9-47.2 36.1l.5 3.9zm167.4-93c-4.2 6.3-10.7 8.4-16.8 7.1-6.2-1.3-12-5.9-14.5-13.2l-3.8 1.3c3 8.6 9.9 14.2 17.5 15.8 7.6 1.6 15.8-1 20.9-8.8l-3.3-2.2z" fill="#000" mask="url(#a)"/></svg>