<svg width="449" height="348" fill="none" xmlns="http://www.w3.org/2000/svg"><mask id="a" fill="#fff"><path fill-rule="evenodd" clip-rule="evenodd" d="M412 168v-16l1-7C424 69 372 4 297 0c-44-2-86 17-116 47-16 17-47 20-70 17h-7C54 62 8 123 1 199s28 139 79 141c20 1 39-9 56-25 15-15 40-20 58-8 56 35 128 51 183 35 78-22 95-96 39-165l-3-6-1-3z"/></mask><path fill-rule="evenodd" clip-rule="evenodd" d="M412 168v-16l1-7C424 69 372 4 297 0c-44-2-86 17-116 47-16 17-47 20-70 17h-7C54 62 8 123 1 199s28 139 79 141c20 1 39-9 56-25 15-15 40-20 58-8 56 35 128 51 183 35 78-22 95-96 39-165l-3-6-1-3z" fill="#F5BD41"/><path d="M413 145h2-2zM297 0v-2 2zM104 64l1-2-1 2zM1 199h2-2zm79 141v-2 2zm297 2v-2 2zM181 47l-1-1 1 1zm232 124h-2 2zm-1-19h2-2zm2 0l1-7h-4l-1 6 4 1zm1-7C426 68 373 2 297-2v4c74 4 125 68 114 143h4zM297-2c-44-2-87 17-117 48l3 3c29-31 71-49 114-47v-4zM111 62h-6l-1 4h6l1-4zm-6 0c-27-1-51 14-70 39S2 160-1 199h4c3-38 16-72 35-96 18-24 42-38 66-37l1-4zM-1 199c-4 38 4 73 18 99 15 26 37 43 63 44v-4c-24-1-45-16-59-42-14-25-22-59-18-97h-4zm81 143c21 1 41-9 57-26l-2-2c-17 16-36 25-55 24v4zm113-34c57 36 129 52 185 36l-1-4c-55 15-126 0-182-35l-2 3zm185 36c39-11 63-36 71-66 7-31-3-67-31-102l-3 3c27 34 37 69 30 98s-30 52-68 63l1 4zm32-176l1 3 4-1-1-3-4 1zM137 316c15-14 39-18 56-8l2-3c-19-12-45-7-60 9l2 2zm43-270c-8 8-19 13-32 15-12 3-26 3-37 1l-1 4c12 2 26 2 39-1 13-2 25-7 34-16l-3-3zm238 130l-3-6-4 1 4 8 3-3zm-8-25v17l4-1v-15l-4-1z" fill="#000" mask="url(#a)"/></svg>