<svg width="393" height="282" fill="none" xmlns="http://www.w3.org/2000/svg"><mask id="a" fill="#fff"><path fill-rule="evenodd" clip-rule="evenodd" d="M300.4 281.3c51.1 0 92.6-62.8 92.6-140.3C393 63.5 351.5.7 300.4.7l-3 .1-.1-.1H54.5C24.7.7.5 25 .5 54.7v172.6c0 29.8 24.2 54 54 54h242.9v-.1l3 .1z"/></mask><path fill-rule="evenodd" clip-rule="evenodd" d="M300.4 281.3c51.1 0 92.6-62.8 92.6-140.3C393 63.5 351.5.7 300.4.7l-3 .1-.1-.1H54.5C24.7.7.5 25 .5 54.7v172.6c0 29.8 24.2 54 54 54h242.9v-.1l3 .1z" fill="#F5BD41"/><path d="M297.4 281.2l-.1 2 .1-2zm0-280.4l.1 2-.1-2zM391 141c0 38.4-10.3 73.1-26.8 98.1s-39.2 40.2-63.8 40.2v4c26.5 0 50.1-16.3 67.1-42 17-25.7 27.5-61.2 27.5-100.3h-4zM300.4 2.7c24.6 0 47.3 15.2 63.8 40.3 16.5 25 26.8 59.6 26.8 98h4c0-39-10.5-74.5-27.5-100.3-17-25.7-40.6-42-67.1-42v4zm-2.9.1l2.9-.1v-4l-3.1.1.2 4zm-243-.1h242.8v-4H54.5v4zm-52 224.6V54.7h-4v172.6h4zm294.8 52H54.5v4h242.8v-4zm3.1 0l-2.9-.1-.2 4 3.1.1v-4zm-1 2c0 1.1-1 2-2.1 1.9l.2-4c-1.1 0-2.1.9-2.1 2.1h4zm-2.1 2c1.2 0 2.1-.9 2.1-2h-4c0-1.1.9-2 1.9-2v4zm-298.8-56c0 30.9 25.1 56 56 56v-4c-28.7 0-52-23.3-52-52h-4zm56-228.6c-30.9 0-56 25.1-56 56h4c0-28.7 23.3-52 52-52v-4zM299.4.8c0-1.1-.9-2.1-2.1-2.1v4c-1 0-1.9-.8-1.9-1.9h4zm-2.1-2c1.1 0 2.1.9 2.1 2h-4c0 1.2 1 2.1 2.1 2l-.2-4z" fill="#000" mask="url(#a)"/></svg>